<svg width="512" height="512" viewBox="0 0 32 32" fill="none" xmlns="http://www.w3.org/2000/svg">
  <path d="M24 18C24 21.3137 21.3137 24 18 24H14C10.6863 24 8 21.3137 8 18C8 14.6863 10.6863 12 14 12C14 8.68629 16.6863 6 20 6C23.3137 6 26 8.68629 26 12C28.2091 12 30 13.7909 30 16C30 18.2091 28.2091 20 26 20" fill="#6366f1" fill-opacity="0.2" />
  <path d="M24 18C24 21.3137 21.3137 24 18 24H14C10.6863 24 8 21.3137 8 18C8 14.6863 10.6863 12 14 12C14 8.68629 16.6863 6 20 6C23.3137 6 26 8.68629 26 12C28.2091 12 30 13.7909 30 16C30 18.2091 28.2091 20 26 20" stroke="#6366f1" stroke-width="2" stroke-linecap="round" stroke-linejoin="round" />
  <path d="M16 24V18" stroke="#22c55e" stroke-width="2" stroke-linecap="round" />
  <path d="M16 18C16 18 17 15 20 15" stroke="#22c55e" stroke-width="2" stroke-linecap="round" />
  <path d="M16 19C16 19 15 17 13 17" stroke="#22c55e" stroke-width="2" stroke-linecap="round" />
  <path d="M14 16C14 16 15 15 16 15" stroke="#6366f1" stroke-width="1.5" stroke-linecap="round" opacity="0.5" />
  <path d="M20 11C20 11 21 12 22 12" stroke="#6366f1" stroke-width="1.5" stroke-linecap="round" opacity="0.5" />
</svg>
