<svg width="512" height="512" viewBox="0 0 32 32" fill="none" xmlns="http://www.w3.org/2000/svg">
  <defs>
    <linearGradient id="tile" x1="16" y1="2.3" x2="16" y2="28.5" gradientUnits="userSpaceOnUse">
      <stop stop-color="#4E5898" />
      <stop offset="1" stop-color="#1A2144" />
    </linearGradient>
    <linearGradient id="sprout" x1="16" y1="24" x2="20" y2="8" gradientUnits="userSpaceOnUse">
      <stop stop-color="#22C55E" />
      <stop offset="1" stop-color="#86EFAC" />
    </linearGradient>
  </defs>

  <ellipse cx="16" cy="29.2" rx="8.4" ry="1.8" fill="#05070F" fill-opacity="0.22" />
  <rect x="2.9" y="3.5" width="26.2" height="25.6" rx="6.2" fill="#11162F" fill-opacity="0.9" />
  <rect x="2.7" y="2.4" width="26.6" height="25.9" rx="6.1" fill="url(#tile)" stroke="#AAB8FF" stroke-opacity="0.22" stroke-width="0.22" />
  <rect x="3.05" y="2.75" width="25.9" height="25.2" rx="5.8" stroke="#E5EAFF" stroke-opacity="0.12" stroke-width="0.18" />

  <g transform="translate(3.1 4.4) scale(0.78)">
    <ellipse cx="16" cy="15" rx="9.2" ry="5.8" fill="#8DA2FF" fill-opacity="0.12" />

    <path
      d="M24 18C24 21.3137 21.3137 24 18 24H14C10.6863 24 8 21.3137 8 18C8 14.6863 10.6863 12 14 12C14 8.68629 16.6863 6 20 6C23.3137 6 26 8.68629 26 12C28.2091 12 30 13.7909 30 16C30 18.2091 28.2091 20 26 20"
      fill="#818CF8"
      fill-opacity="0.18"
    />
    <path
      d="M24 18C24 21.3137 21.3137 24 18 24H14C10.6863 24 8 21.3137 8 18C8 14.6863 10.6863 12 14 12C14 8.68629 16.6863 6 20 6C23.3137 6 26 8.68629 26 12C28.2091 12 30 13.7909 30 16C30 18.2091 28.2091 20 26 20"
      stroke="#B9C5FF"
      stroke-width="1.15"
      stroke-linecap="round"
      stroke-linejoin="round"
    />

    <path d="M11 18L13.3 14.9L17 14.1L20.2 15.1L22.6 18.1L20.9 21L16.9 22.1L13.1 21.4L11 18Z" fill="#B8C6FF" fill-opacity="0.12" />
    <path d="M11.4 18L14 14.4L17 14L20 15L22.3 18.1L19.8 21.1L16.8 21.9L13.5 21.1L11.4 18Z" stroke="#A5B4FC" stroke-opacity="0.32" stroke-width="0.45" />
    <circle cx="13.1" cy="15.2" r="0.46" fill="#DCE4FF" fill-opacity="0.76" />
    <circle cx="18.3" cy="14.3" r="0.46" fill="#DCE4FF" fill-opacity="0.76" />
    <circle cx="21.3" cy="18" r="0.46" fill="#DCE4FF" fill-opacity="0.76" />
    <circle cx="14.4" cy="20.2" r="0.46" fill="#DCE4FF" fill-opacity="0.76" />
    <path d="M13.1 15.2L14.4 20.2L17 14.3L21.3 18L18.3 14.3L13.1 15.2Z" stroke="#C8D3FF" stroke-opacity="0.28" stroke-width="0.35" stroke-linecap="round" />

    <path d="M16.2 24V18" stroke="url(#sprout)" stroke-width="1.5" stroke-linecap="round" />
    <path d="M16.2 20.4L18.9 15.8" stroke="url(#sprout)" stroke-width="1.2" stroke-linecap="round" />
    <path d="M16.1 21L13.5 17.9" stroke="url(#sprout)" stroke-width="1.2" stroke-linecap="round" />
    <path d="M16.3 18.7L15.2 16.8" stroke="url(#sprout)" stroke-width="1.1" stroke-linecap="round" />

    <path d="M18.6 15.4C19.8 15.7 20.7 16.6 20.8 17.9C19.6 17.6 18.7 16.7 18.6 15.4Z" fill="#22C55E" stroke="#B7F7CB" stroke-width="0.35" />
    <path d="M13.3 17.5C14.6 17.7 15.5 18.6 15.7 19.9C14.4 19.7 13.5 18.8 13.3 17.5Z" fill="#22C55E" stroke="#B7F7CB" stroke-width="0.35" />
    <path d="M15.1 16.3C16.2 16.4 17 17.2 17.3 18.3C16.2 18.2 15.4 17.4 15.1 16.3Z" fill="#22C55E" stroke="#B7F7CB" stroke-width="0.35" />
    <path d="M18 9.1C19.1 9.6 19.8 10.6 19.7 11.9C18.6 11.4 17.9 10.4 18 9.1Z" fill="#22C55E" stroke="#B7F7CB" stroke-width="0.35" />
  </g>
</svg>
