<svg
  width="512"
  height="512"
  viewBox="0 0 32 32"
  fill="none"
  xmlns="http://www.w3.org/2000/svg"
>
  <title>Self Growth mascot app icon</title>
  <defs>
    <linearGradient id="tile" x1="6.2" y1="2.3" x2="25.8" y2="28.6" gradientUnits="userSpaceOnUse">
      <stop stop-color="#5F6DE8" />
      <stop offset="0.52" stop-color="#26366C" />
      <stop offset="1" stop-color="#11182F" />
    </linearGradient>
    <radialGradient
      id="tileGlow"
      cx="0"
      cy="0"
      r="1"
      gradientUnits="userSpaceOnUse"
      gradientTransform="translate(10.4 7.9) rotate(50.4) scale(16.9 13.9)"
    >
      <stop stop-color="#C7D2FE" stop-opacity="0.34" />
      <stop offset="1" stop-color="#C7D2FE" stop-opacity="0" />
    </radialGradient>
    <linearGradient id="body" x1="17.2" y1="8.3" x2="18.6" y2="24.7" gradientUnits="userSpaceOnUse">
      <stop stop-color="#F8FAFF" />
      <stop offset="0.58" stop-color="#DCE5FF" />
      <stop offset="1" stop-color="#A5B4FC" />
    </linearGradient>
    <radialGradient
      id="bodyGlow"
      cx="0"
      cy="0"
      r="1"
      gradientUnits="userSpaceOnUse"
      gradientTransform="translate(18.2 12.6) rotate(90) scale(8.4 7.1)"
    >
      <stop stop-color="#FFFFFF" stop-opacity="0.86" />
      <stop offset="1" stop-color="#FFFFFF" stop-opacity="0" />
    </radialGradient>
    <linearGradient id="leaf" x1="16" y1="10.5" x2="22.3" y2="4.9" gradientUnits="userSpaceOnUse">
      <stop stop-color="#22C55E" />
      <stop offset="1" stop-color="#BBF7D0" />
    </linearGradient>
    <radialGradient id="blushLeft" cx="0" cy="0" r="1" gradientUnits="userSpaceOnUse" gradientTransform="translate(13.2 17.9) scale(1.75 1.2)">
      <stop stop-color="#FB7185" stop-opacity="0.52" />
      <stop offset="1" stop-color="#FB7185" stop-opacity="0" />
    </radialGradient>
    <radialGradient id="blushRight" cx="0" cy="0" r="1" gradientUnits="userSpaceOnUse" gradientTransform="translate(21.2 17.9) scale(1.75 1.2)">
      <stop stop-color="#FB7185" stop-opacity="0.52" />
      <stop offset="1" stop-color="#FB7185" stop-opacity="0" />
    </radialGradient>
    <filter id="tileShadow" x="0.3" y="1" width="31.4" height="30" filterUnits="userSpaceOnUse" color-interpolation-filters="sRGB">
      <feFlood flood-opacity="0" result="BackgroundImageFix" />
      <feColorMatrix in="SourceAlpha" type="matrix" values="0 0 0 0 0 0 0 0 0 0 0 0 0 0 0 0 0 0 127 0" result="hardAlpha" />
      <feOffset dy="1.2" />
      <feGaussianBlur stdDeviation="1.15" />
      <feColorMatrix type="matrix" values="0 0 0 0 0.00784314 0 0 0 0 0.0235294 0 0 0 0 0.0901961 0 0 0 0.34 0" />
      <feBlend mode="normal" in2="BackgroundImageFix" result="effect1_dropShadow_1_1" />
      <feBlend mode="normal" in="SourceGraphic" in2="effect1_dropShadow_1_1" result="shape" />
    </filter>
    <filter id="bodyShadow" x="7.4" y="4.6" width="22.2" height="21.6" filterUnits="userSpaceOnUse" color-interpolation-filters="sRGB">
      <feFlood flood-opacity="0" result="BackgroundImageFix" />
      <feColorMatrix in="SourceAlpha" type="matrix" values="0 0 0 0 0 0 0 0 0 0 0 0 0 0 0 0 0 0 127 0" result="hardAlpha" />
      <feOffset dy="0.8" />
      <feGaussianBlur stdDeviation="0.7" />
      <feColorMatrix type="matrix" values="0 0 0 0 0.0431373 0 0 0 0 0.0666667 0 0 0 0 0.12549 0 0 0 0.22 0" />
      <feBlend mode="normal" in2="BackgroundImageFix" result="effect1_dropShadow_1_1" />
      <feBlend mode="normal" in="SourceGraphic" in2="effect1_dropShadow_1_1" result="shape" />
    </filter>
  </defs>

  <ellipse cx="16" cy="28.9" rx="8.1" ry="1.55" fill="#020617" fill-opacity="0.18" />

  <g filter="url(#tileShadow)">
    <rect x="2.7" y="2.4" width="26.6" height="25.9" rx="6.15" fill="#0D1430" />
    <rect x="2.7" y="2.4" width="26.6" height="25.9" rx="6.15" fill="url(#tile)" />
    <rect x="2.7" y="2.4" width="26.6" height="25.9" rx="6.15" fill="url(#tileGlow)" />
    <path d="M4.6 5.5C8.8 2.6 16.5 1.8 27.4 3.7V7.1C18.8 5.9 10.9 6.3 4 9.8C3.7 8.4 4 6.4 4.6 5.5Z" fill="#FFFFFF" fill-opacity="0.12" />
    <rect x="3.05" y="2.75" width="25.9" height="25.2" rx="5.8" stroke="#ECF2FF" stroke-opacity="0.18" stroke-width="0.18" />
  </g>

  <path d="M8.8 9.15L9.18 10.08L10.12 10.46L9.18 10.83L8.8 11.78L8.43 10.83L7.48 10.46L8.43 10.08L8.8 9.15Z" fill="#DDE6FF" fill-opacity="0.72" />
  <circle cx="23.45" cy="8.9" r="0.36" fill="#BBF7D0" fill-opacity="0.9" />
  <circle cx="24.55" cy="10.1" r="0.18" fill="#DDE6FF" fill-opacity="0.74" />

  <g filter="url(#bodyShadow)">
    <path d="M17.85 10.9C17.74 9.12 18.18 7.52 19.08 6.12" stroke="url(#leaf)" stroke-width="1.02" stroke-linecap="round" />
    <path d="M19.06 5.87C20.3 6.15 21.28 7.05 21.62 8.3C20.36 8.04 19.39 7.14 19.06 5.87Z" fill="#22C55E" stroke="#DCFCE7" stroke-width="0.2" />
    <path d="M18.07 6.37C16.82 6.57 15.75 7.42 15.25 8.6C16.54 8.52 17.58 7.71 18.07 6.37Z" fill="#34D399" stroke="#DCFCE7" stroke-width="0.2" />

    <path d="M24 18C24 21.3137 21.3137 24 18 24H14C10.6863 24 8 21.3137 8 18C8 14.6863 10.6863 12 14 12C14 8.68629 16.6863 6 20 6C23.3137 6 26 8.68629 26 12C28.2091 12 30 13.7909 30 16C30 18.2091 28.2091 20 26 20" fill="url(#body)" />
    <path d="M24 18C24 21.3137 21.3137 24 18 24H14C10.6863 24 8 21.3137 8 18C8 14.6863 10.6863 12 14 12C14 8.68629 16.6863 6 20 6C23.3137 6 26 8.68629 26 12C28.2091 12 30 13.7909 30 16C30 18.2091 28.2091 20 26 20" fill="url(#bodyGlow)" />
    <path d="M24 18C24 21.3137 21.3137 24 18 24H14C10.6863 24 8 21.3137 8 18C8 14.6863 10.6863 12 14 12C14 8.68629 16.6863 6 20 6C23.3137 6 26 8.68629 26 12C28.2091 12 30 13.7909 30 16C30 18.2091 28.2091 20 26 20" stroke="#DCE5FF" stroke-width="1.15" stroke-linecap="round" stroke-linejoin="round" />

    <path d="M14.1 13.25C15.05 12.58 16 12.22 17.1 12.17" stroke="#8EA0F9" stroke-opacity="0.5" stroke-width="0.55" stroke-linecap="round" />
    <path d="M13.2 15.2C14.18 14.58 15.28 14.27 16.4 14.35" stroke="#8EA0F9" stroke-opacity="0.42" stroke-width="0.5" stroke-linecap="round" />
    <path d="M20.35 11.45C21.46 11.74 22.32 12.38 23.05 13.18" stroke="#8EA0F9" stroke-opacity="0.48" stroke-width="0.55" stroke-linecap="round" />
    <path d="M20 13.95C20.93 14.26 21.69 14.9 22.16 15.82" stroke="#8EA0F9" stroke-opacity="0.42" stroke-width="0.5" stroke-linecap="round" />

    <ellipse cx="13.2" cy="17.9" rx="1.8" ry="1.18" fill="url(#blushLeft)" />
    <ellipse cx="21.2" cy="17.9" rx="1.8" ry="1.18" fill="url(#blushRight)" />

    <ellipse cx="15.15" cy="16.35" rx="0.72" ry="0.9" fill="#25304E" />
    <ellipse cx="19.45" cy="16.35" rx="0.72" ry="0.9" fill="#25304E" />
    <circle cx="15.38" cy="16.02" r="0.18" fill="#FFFFFF" />
    <circle cx="19.68" cy="16.02" r="0.18" fill="#FFFFFF" />

    <path d="M15.1 18.75C15.84 19.6 16.86 20.02 18 20.02C19.1 20.02 20.08 19.62 20.76 18.82" stroke="#334155" stroke-width="0.56" stroke-linecap="round" />
    <path d="M17.92 17.1C17.88 17.4 17.61 17.64 17.28 17.64C16.95 17.64 16.66 17.42 16.58 17.1" stroke="#64748B" stroke-width="0.3" stroke-linecap="round" />
  </g>
</svg>
